<?xml version="1.0" encoding="UTF-8"?>
<svg version="1.1" xmlns="http://www.w3.org/2000/svg" width="1070" height="837">
<path d="M0 0 C353.1 0 706.2 0 1070 0 C1070 276.21 1070 552.42 1070 837 C716.9 837 363.8 837 0 837 C0 560.79 0 284.58 0 0 Z " fill="#000100" transform="translate(0,0)"/>
<path d="M0 0 C36.3 0 72.6 0 110 0 C113.36732187 10.1019656 113.36732187 10.1019656 114.39453125 14.20703125 C114.62454834 15.11243652 114.85456543 16.0178418 115.09155273 16.95068359 C115.44842163 18.36728271 115.44842163 18.36728271 115.8125 19.8125 C117.709614 27.21485985 119.70437098 34.5668487 121.9375 41.875 C126.65570041 57.3361559 130.97392044 72.90731688 135 88.5625 C137.79063184 99.40053528 140.91347247 110.12694322 144.07910156 120.86035156 C147.1180761 131.22122446 150.05078795 141.61330325 153 152 C153.31834808 153.12066864 153.31834808 153.12066864 153.64312744 154.26397705 C163.44392231 188.77199968 163.44392231 188.77199968 167.75 204.9375 C171.24760987 218.06616468 175.06814355 231.09277486 178.92333984 244.12011719 C179.84735137 247.24597702 180.76746272 250.37296852 181.6875 253.5 C182.09742188 254.87696045 182.09742188 254.87696045 182.515625 256.28173828 C184.92683855 264.48073798 186.92077135 272.6830854 189 281 C189.33 188.27 189.66 95.54 190 0 C216.4 0 242.8 0 270 0 C270 167.31 270 334.62 270 507 C239.97 507 209.94 507 179 507 C178.01 501.555 178.01 501.555 177 496 C176.54224451 494.09133493 176.05685473 492.18859107 175.51953125 490.30078125 C175.24616943 489.33172852 174.97280762 488.36267578 174.69116211 487.36425781 C174.40120361 486.35717773 174.11124512 485.35009766 173.8125 484.3125 C173.50642822 483.23452148 173.20035645 482.15654297 172.88500977 481.04589844 C170.51484111 472.72335377 168.10259357 464.4125752 165.66137695 456.1105957 C160.18482572 437.47814011 154.95080891 418.77461769 149.67724609 400.08398438 C146.70066718 389.53596498 143.71904174 378.98941031 140.71484375 368.44921875 C140.47000244 367.58824585 140.22516113 366.72727295 139.97290039 365.84020996 C138.72742933 361.47780201 137.44058198 357.13537925 136.0625 352.8125 C133.70238431 345.27188141 131.73911693 337.62336683 129.70727539 329.98950195 C127.91420373 323.28967848 126.03355408 316.63058974 124 310 C121.32132942 301.26251699 118.94921659 292.45596706 116.60327148 283.62402344 C114.86862891 277.12781323 113.03984764 270.67621197 111.0625 264.25 C108.51169076 255.95149328 106.2681707 247.58353657 104.0625 239.1875 C101.43735725 229.20046262 98.64036397 219.28966406 95.58105469 209.42626953 C93.38684167 202.33331923 91.31707543 195.21134081 89.3125 188.0625 C89.03913818 187.09272217 88.76577637 186.12294434 88.48413086 185.1237793 C86.15965293 176.78135368 84.1027796 168.41111842 82 160 C81.67 274.18 81.34 388.36 81 506 C54.27 506 27.54 506 0 506 C0 339.02 0 172.04 0 0 Z " fill="#FBFCFB" transform="translate(476,166)"/>
<path d="M0 0 C0.87885361 -0.01252808 1.75770721 -0.02505615 2.66319275 -0.03796387 C27.48885738 -0.32316404 51.10226702 0.2067038 73.88671875 11.2734375 C74.51755371 11.57652832 75.14838867 11.87961914 75.79833984 12.19189453 C84.31981949 16.33571418 91.71540721 21.02152487 98.88671875 27.2734375 C99.50804687 27.76328125 100.129375 28.253125 100.76953125 28.7578125 C116.71652095 41.4867998 126.44644668 62.29942323 131.63671875 81.6484375 C131.82322998 82.34146973 132.00974121 83.03450195 132.2019043 83.74853516 C132.82728263 86.24612059 133.36321629 88.75239892 133.88671875 91.2734375 C134.15073486 92.48016113 134.41475098 93.68688477 134.68676758 94.93017578 C137.47429472 108.710185 137.22417845 122.39246657 137.07421875 136.3984375 C137.01234375 144.6071875 136.95046875 152.8159375 136.88671875 161.2734375 C109.16671875 161.2734375 81.44671875 161.2734375 52.88671875 161.2734375 C52.51171875 138.4609375 52.51171875 138.4609375 52.40869141 131.32885742 C52.37343161 129.42886038 52.33750454 127.52887556 52.30078125 125.62890625 C52.28942139 124.67036743 52.27806152 123.71182861 52.26635742 122.72424316 C52.00685256 110.39776233 50.18108637 98.39179506 41.73828125 88.84375 C31.40443259 79.2152835 20.285887 78.79582727 6.76171875 78.99609375 C1.14740126 79.21047023 -3.30953492 80.30451943 -8.11328125 83.2734375 C-9.19802734 83.92699219 -9.19802734 83.92699219 -10.3046875 84.59375 C-18.92923939 90.40698387 -22.47147835 98.91952868 -24.67578125 108.79296875 C-26.36957752 122.26772297 -26.55793294 137.33218259 -22.11328125 150.2734375 C-21.76136719 151.34207031 -21.40945313 152.41070312 -21.046875 153.51171875 C-14.26698959 172.55357514 -0.89300399 188.81446986 14.82421875 201.3984375 C15.76394531 202.15511719 16.70367187 202.91179687 17.671875 203.69140625 C18.18250488 204.10052246 18.69313477 204.50963867 19.21923828 204.93115234 C21.05247302 206.40686605 22.87453207 207.89566807 24.6953125 209.38671875 C32.98293004 216.16740534 41.36612687 222.78808601 49.88671875 229.2734375 C70.86982126 245.31316792 70.86982126 245.31316792 80.57421875 254.18359375 C82.53657389 255.95700591 84.53333284 257.65493995 86.57421875 259.3359375 C89.68955813 261.98759846 92.31439393 264.91451883 94.953125 268.03515625 C96.31735488 269.61435569 97.72589466 271.15579571 99.1640625 272.66796875 C118.90140457 293.46545242 131.3974245 319.27620096 136.88671875 347.2734375 C137.0377002 347.98870605 137.18868164 348.70397461 137.34423828 349.44091797 C145.73781012 390.30412154 140.96989622 437.97936408 117.91796875 473.2890625 C101.55620114 496.53316092 79.80402378 509.96121633 52.76171875 517.5234375 C51.84310059 517.78213623 50.92448242 518.04083496 49.97802734 518.30737305 C49.07906738 518.54883057 48.18010742 518.79028809 47.25390625 519.0390625 C46.46097168 519.25336914 45.66803711 519.46767578 44.85107422 519.68847656 C37.44138971 521.15064129 29.91765816 521.44678215 22.3828125 521.546875 C21.07302177 521.56566711 21.07302177 521.56566711 19.73677063 521.58483887 C-4.97044248 521.87093869 -28.432557 521.27612135 -51.11328125 510.2734375 C-52.09039062 509.80035156 -53.0675 509.32726562 -54.07421875 508.83984375 C-79.53426936 495.68191843 -97.76030613 474.1086091 -107.11328125 447.2734375 C-107.35498047 446.59450439 -107.59667969 445.91557129 -107.84570312 445.21606445 C-109.88514138 439.33963958 -111.37453366 433.40124698 -112.73828125 427.3359375 C-112.95484375 426.41103516 -113.17140625 425.48613281 -113.39453125 424.53320312 C-113.70777344 423.15358398 -113.70777344 423.15358398 -114.02734375 421.74609375 C-114.21248535 420.93406494 -114.39762695 420.12203613 -114.58837891 419.28540039 C-116.1734082 410.19028115 -116.24817022 401.16631662 -116.2109375 391.953125 C-116.20993042 390.76404541 -116.20892334 389.57496582 -116.20788574 388.34985352 C-116.20269219 383.94937156 -116.18873121 379.54890346 -116.17578125 375.1484375 C-116.15515625 365.2896875 -116.13453125 355.4309375 -116.11328125 345.2734375 C-88.39328125 345.2734375 -60.67328125 345.2734375 -32.11328125 345.2734375 C-31.86328125 373.3359375 -31.86328125 373.3359375 -31.81542969 382.09790039 C-31.75837526 408.75451255 -31.75837526 408.75451255 -18.97265625 431.3984375 C-7.1023047 441.0885204 6.15064264 441.32396973 20.88671875 440.2734375 C29.55053288 438.70064967 37.40817805 435.11078316 42.63671875 427.83984375 C49.94343685 416.01911951 51.26980316 404.17886332 51.19921875 390.4609375 C51.1943042 389.32382324 51.18938965 388.18670898 51.18432617 387.01513672 C50.87137378 364.49861322 42.72882696 344.27540474 27.88671875 327.2734375 C27.17515625 326.44070313 26.46359375 325.60796875 25.73046875 324.75 C17.58807101 315.43211526 8.33484424 307.71882669 -1.40625 300.16015625 C-5.17320086 297.23650796 -8.89592796 294.25975308 -12.61328125 291.2734375 C-16.86297167 287.86040831 -21.12986871 284.47348719 -25.43383789 281.12915039 C-44.89311186 265.98446247 -63.72150665 249.59561169 -79.11328125 230.2734375 C-79.79390625 229.46003906 -80.47453125 228.64664063 -81.17578125 227.80859375 C-90.20539948 216.92719835 -96.56209485 204.96746589 -102.28515625 192.12695312 C-102.96227244 190.61142656 -103.659885 189.10507199 -104.36328125 187.6015625 C-107.59994794 180.26848954 -109.08617445 172.42972688 -110.64306641 164.60400391 C-111.07987234 162.43902497 -111.55308651 160.2850359 -112.03125 158.12890625 C-119.60905599 121.67607969 -113.16592728 79.62737205 -93.14868164 48.07275391 C-76.99606549 23.72216687 -52.11001596 8.79192903 -23.80859375 2.8449707 C-20.91747013 2.27422052 -18.01946933 1.76131207 -15.11328125 1.2734375 C-13.81015991 1.01759888 -13.81015991 1.01759888 -12.48071289 0.7565918 C-8.30492535 0.15745575 -4.21361451 0.05458189 0 0 Z " fill="#FCFCFC" transform="translate(284.11328125,158.7265625)"/>
<path d="M0 0 C29.04 0 58.08 0 88 0 C88 32.01 88 64.02 88 97 C58.96 97 29.92 97 0 97 C0 64.99 0 32.98 0 0 Z " fill="#FCFCFC" transform="translate(805,575)"/>
</svg>
